<svg width="1386" height="653" viewBox="0 0 1386 653" fill="none" xmlns="http://www.w3.org/2000/svg">
<path d="M573.109 441C559.776 441 546.943 439.333 534.609 436C522.276 432.333 510.943 427.333 500.609 421C490.276 414.333 481.276 406.333 473.609 397L508.609 362C516.943 371.667 526.443 379 537.109 384C548.109 388.667 560.443 391 574.109 391C586.443 391 595.776 389.167 602.109 385.5C608.443 381.833 611.609 376.5 611.609 369.5C611.609 362.167 608.609 356.5 602.609 352.5C596.609 348.5 588.776 345.167 579.109 342.5C569.776 339.5 559.776 336.5 549.109 333.5C538.776 330.5 528.776 326.5 519.109 321.5C509.776 316.167 502.109 309 496.109 300C490.109 291 487.109 279.333 487.109 265C487.109 249.667 490.609 236.5 497.609 225.5C504.943 214.5 515.109 206 528.109 200C541.443 194 557.276 191 575.609 191C594.943 191 611.943 194.5 626.609 201.5C641.609 208.167 654.109 218.333 664.109 232L629.109 267C622.109 258.333 614.109 251.833 605.109 247.5C596.109 243.167 585.776 241 574.109 241C563.109 241 554.609 242.667 548.609 246C542.609 249.333 539.609 254.167 539.609 260.5C539.609 267.167 542.609 272.333 548.609 276C554.609 279.667 562.276 282.833 571.609 285.5C581.276 288.167 591.276 291.167 601.609 294.5C612.276 297.5 622.276 301.833 631.609 307.5C641.276 312.833 649.109 320.167 655.109 329.5C661.109 338.5 664.109 350.333 664.109 365C664.109 388.333 655.943 406.833 639.609 420.5C623.276 434.167 601.109 441 573.109 441ZM745.953 436V96H800.953V436H745.953ZM688.453 246V196H858.453V246H688.453ZM992.082 441C970.415 441 950.749 435.5 933.082 424.5C915.749 413.5 901.915 398.667 891.582 380C881.582 361 876.582 339.833 876.582 316.5C876.582 292.833 881.582 271.667 891.582 253C901.915 234 915.749 219 933.082 208C950.749 196.667 970.415 191 992.082 191C1010.42 191 1026.58 195 1040.58 203C1054.92 210.667 1066.25 221.333 1074.58 235C1082.92 248.667 1087.08 264.167 1087.08 281.5V350.5C1087.08 367.833 1082.92 383.333 1074.58 397C1066.58 410.667 1055.42 421.5 1041.08 429.5C1026.75 437.167 1010.42 441 992.082 441ZM1001.08 389C1021.42 389 1037.75 382.167 1050.08 368.5C1062.75 354.833 1069.08 337.333 1069.08 316C1069.08 301.667 1066.25 289 1060.58 278C1054.92 267 1046.92 258.5 1036.58 252.5C1026.58 246.167 1014.75 243 1001.08 243C987.749 243 975.915 246.167 965.582 252.5C955.582 258.5 947.582 267 941.582 278C935.915 289 933.082 301.667 933.082 316C933.082 330.333 935.915 343 941.582 354C947.582 365 955.582 373.667 965.582 380C975.915 386 987.749 389 1001.08 389ZM1065.58 436V371.5L1075.08 313L1065.58 255V196H1120.58V436H1065.58ZM1181.62 436V196H1236.62V436H1181.62ZM1236.62 302.5L1217.62 293C1217.62 262.667 1224.29 238.167 1237.62 219.5C1251.29 200.5 1271.79 191 1299.12 191C1311.12 191 1321.95 193.167 1331.62 197.5C1341.29 201.833 1350.29 208.833 1358.62 218.5L1322.62 255.5C1318.29 250.833 1313.45 247.5 1308.12 245.5C1302.79 243.5 1296.62 242.5 1289.62 242.5C1274.29 242.5 1261.62 247.333 1251.62 257C1241.62 266.667 1236.62 281.833 1236.62 302.5Z" fill="#212121"/>
<path d="M300.041 613.56C292.241 613.56 285.013 612.156 278.357 609.348C271.701 606.436 265.877 602.432 260.885 597.336C255.997 592.24 252.201 586.312 249.497 579.552C246.793 572.792 245.441 565.564 245.441 557.868C245.441 550.068 246.793 542.788 249.497 536.028C252.201 529.268 255.997 523.392 260.885 518.4C265.877 513.304 271.649 509.352 278.201 506.544C284.857 503.632 292.085 502.176 299.885 502.176C308.413 502.176 315.901 503.632 322.349 506.544C328.797 509.456 334.517 513.408 339.509 518.4L329.369 528.54C325.937 524.692 321.725 521.676 316.733 519.492C311.845 517.308 306.229 516.216 299.885 516.216C294.165 516.216 288.913 517.256 284.129 519.336C279.345 521.312 275.185 524.172 271.649 527.916C268.113 531.66 265.357 536.08 263.381 541.176C261.509 546.272 260.573 551.836 260.573 557.868C260.573 563.9 261.509 569.464 263.381 574.56C265.357 579.656 268.113 584.076 271.649 587.82C275.185 591.564 279.345 594.476 284.129 596.556C288.913 598.532 294.165 599.52 299.885 599.52C306.645 599.52 312.521 598.428 317.513 596.244C322.505 593.956 326.717 590.888 330.149 587.04L340.289 597.024C335.297 602.224 329.421 606.28 322.661 609.192C316.005 612.104 308.465 613.56 300.041 613.56ZM408.13 613.56C401.37 613.56 395.234 611.896 389.722 608.568C384.21 605.136 379.842 600.508 376.618 594.684C373.498 588.86 371.938 582.308 371.938 575.028C371.938 567.748 373.498 561.196 376.618 555.372C379.842 549.548 384.158 544.92 389.566 541.488C395.078 538.056 401.266 536.34 408.13 536.34C413.746 536.34 418.738 537.536 423.106 539.928C427.578 542.216 431.166 545.44 433.87 549.6C436.574 553.656 438.082 558.388 438.394 563.796V586.104C438.082 591.408 436.574 596.14 433.87 600.3C431.27 604.46 427.734 607.736 423.262 610.128C418.894 612.416 413.85 613.56 408.13 613.56ZM410.47 600.3C417.438 600.3 423.054 597.96 427.318 593.28C431.582 588.496 433.714 582.412 433.714 575.028C433.714 569.932 432.726 565.512 430.75 561.768C428.878 557.92 426.174 554.956 422.638 552.876C419.102 550.692 414.994 549.6 410.314 549.6C405.634 549.6 401.474 550.692 397.834 552.876C394.298 555.06 391.49 558.076 389.41 561.924C387.434 565.668 386.446 569.984 386.446 574.872C386.446 579.864 387.434 584.284 389.41 588.132C391.49 591.876 394.35 594.84 397.99 597.024C401.63 599.208 405.79 600.3 410.47 600.3ZM432.778 612V592.032L435.43 573.936L432.778 555.996V537.9H446.974V612H432.778ZM529.815 613.56C524.199 613.56 519.103 612.416 514.527 610.128C510.055 607.736 506.467 604.46 503.763 600.3C501.059 596.14 499.551 591.408 499.239 586.104V563.796C499.551 558.388 501.059 553.656 503.763 549.6C506.571 545.44 510.211 542.216 514.683 539.928C519.259 537.536 524.303 536.34 529.815 536.34C536.575 536.34 542.659 538.056 548.067 541.488C553.579 544.92 557.895 549.548 561.015 555.372C564.135 561.196 565.695 567.748 565.695 575.028C565.695 582.308 564.135 588.86 561.015 594.684C557.895 600.508 553.579 605.136 548.067 608.568C542.659 611.896 536.575 613.56 529.815 613.56ZM490.815 612V500.616H504.855V555.996L502.203 573.936L504.855 592.032V612H490.815ZM527.475 600.3C532.155 600.3 536.263 599.208 539.799 597.024C543.335 594.84 546.143 591.876 548.223 588.132C550.303 584.284 551.343 579.864 551.343 574.872C551.343 569.984 550.303 565.616 548.223 561.768C546.143 557.92 543.335 554.956 539.799 552.876C536.263 550.692 532.207 549.6 527.631 549.6C522.951 549.6 518.843 550.692 515.307 552.876C511.771 554.956 509.015 557.92 507.039 561.768C505.063 565.616 504.075 570.036 504.075 575.028C504.075 579.916 505.011 584.284 506.883 588.132C508.859 591.876 511.615 594.84 515.151 597.024C518.791 599.208 522.899 600.3 527.475 600.3ZM693.465 613.56C684.937 613.56 677.657 612 671.625 608.88C665.593 605.76 660.237 601.236 655.557 595.308L665.541 585.324C668.973 590.108 672.925 593.748 677.397 596.244C681.869 598.636 687.381 599.832 693.933 599.832C700.381 599.832 705.529 598.428 709.377 595.62C713.329 592.812 715.305 588.964 715.305 584.076C715.305 580.02 714.369 576.744 712.497 574.248C710.625 571.752 708.077 569.724 704.853 568.164C701.733 566.5 698.301 565.044 694.557 563.796C690.813 562.444 687.069 561.04 683.325 559.584C679.581 558.024 676.149 556.152 673.029 553.968C669.909 551.68 667.361 548.716 665.385 545.076C663.513 541.436 662.577 536.86 662.577 531.348C662.577 525.212 664.033 520.012 666.945 515.748C669.961 511.38 674.017 508.052 679.113 505.764C684.313 503.372 690.137 502.176 696.585 502.176C703.657 502.176 710.001 503.58 715.617 506.388C721.233 509.092 725.809 512.68 729.345 517.152L719.361 527.136C716.137 523.392 712.653 520.584 708.909 518.712C705.269 516.84 701.057 515.904 696.273 515.904C690.449 515.904 685.821 517.204 682.389 519.804C678.957 522.3 677.241 525.836 677.241 530.412C677.241 534.052 678.177 537.016 680.049 539.304C682.025 541.488 684.573 543.36 687.693 544.92C690.813 546.48 694.245 547.936 697.989 549.288C701.837 550.536 705.633 551.94 709.377 553.5C713.121 555.06 716.553 557.036 719.673 559.428C722.793 561.82 725.289 564.94 727.161 568.788C729.137 572.532 730.125 577.264 730.125 582.984C730.125 592.552 726.797 600.04 720.141 605.448C713.589 610.856 704.697 613.56 693.465 613.56ZM804.046 613.56C796.662 613.56 790.006 611.896 784.078 608.568C778.15 605.136 773.47 600.508 770.038 594.684C766.606 588.86 764.89 582.256 764.89 574.872C764.89 567.592 766.554 561.04 769.882 555.216C773.314 549.392 777.89 544.816 783.61 541.488C789.434 538.056 795.934 536.34 803.11 536.34C809.974 536.34 816.006 537.9 821.206 541.02C826.51 544.14 830.618 548.456 833.53 553.968C836.546 559.48 838.054 565.72 838.054 572.688C838.054 573.728 838.002 574.872 837.898 576.12C837.794 577.264 837.586 578.616 837.274 580.176H774.718V568.476H829.786L824.638 573C824.638 568.008 823.754 563.796 821.986 560.364C820.218 556.828 817.722 554.124 814.498 552.252C811.274 550.276 807.374 549.288 802.798 549.288C798.014 549.288 793.802 550.328 790.162 552.408C786.522 554.488 783.714 557.4 781.738 561.144C779.762 564.888 778.774 569.308 778.774 574.404C778.774 579.604 779.814 584.18 781.894 588.132C783.974 591.98 786.938 594.996 790.786 597.18C794.634 599.26 799.054 600.3 804.046 600.3C808.206 600.3 812.002 599.572 815.434 598.116C818.97 596.66 821.986 594.476 824.482 591.564L833.53 600.768C829.994 604.928 825.626 608.1 820.426 610.284C815.33 612.468 809.87 613.56 804.046 613.56ZM876.762 612V537.9H890.802V612H876.762ZM890.802 569.724L885.498 567.384C885.498 557.92 887.682 550.38 892.05 544.764C896.418 539.148 902.71 536.34 910.926 536.34C914.67 536.34 918.05 537.016 921.066 538.368C924.082 539.616 926.89 541.748 929.49 544.764L920.286 554.28C918.726 552.616 917.01 551.42 915.138 550.692C913.266 549.964 911.082 549.6 908.586 549.6C903.386 549.6 899.122 551.264 895.794 554.592C892.466 557.92 890.802 562.964 890.802 569.724ZM986.833 612L952.825 537.9H968.425L995.725 600.456H986.677L1014.13 537.9H1029.11L995.101 612H986.833ZM1064.64 612V537.9H1078.68V612H1064.64ZM1071.66 523.08C1069.06 523.08 1066.92 522.248 1065.26 520.584C1063.6 518.816 1062.76 516.632 1062.76 514.032C1062.76 511.536 1063.6 509.456 1065.26 507.792C1066.92 506.024 1069.06 505.14 1071.66 505.14C1074.26 505.14 1076.39 506.024 1078.05 507.792C1079.72 509.456 1080.55 511.536 1080.55 514.032C1080.55 516.632 1079.72 518.816 1078.05 520.584C1076.39 522.248 1074.26 523.08 1071.66 523.08ZM1156.62 613.56C1149.34 613.56 1142.74 611.844 1136.81 608.412C1130.98 604.98 1126.36 600.352 1122.92 594.528C1119.6 588.6 1117.93 582.048 1117.93 574.872C1117.93 567.592 1119.6 561.04 1122.92 555.216C1126.36 549.392 1130.98 544.816 1136.81 541.488C1142.74 538.056 1149.34 536.34 1156.62 536.34C1162.34 536.34 1167.64 537.432 1172.53 539.616C1177.42 541.696 1181.63 544.764 1185.17 548.82L1175.81 558.18C1173.52 555.476 1170.71 553.448 1167.38 552.096C1164.16 550.64 1160.57 549.912 1156.62 549.912C1151.94 549.912 1147.78 551.004 1144.14 553.188C1140.5 555.268 1137.64 558.18 1135.56 561.924C1133.48 565.668 1132.44 569.984 1132.44 574.872C1132.44 579.76 1133.48 584.076 1135.56 587.82C1137.64 591.564 1140.5 594.528 1144.14 596.712C1147.78 598.896 1151.94 599.988 1156.62 599.988C1160.57 599.988 1164.16 599.312 1167.38 597.96C1170.71 596.504 1173.57 594.424 1175.96 591.72L1185.17 601.08C1181.74 605.032 1177.52 608.1 1172.53 610.284C1167.64 612.468 1162.34 613.56 1156.62 613.56ZM1255.29 613.56C1247.9 613.56 1241.25 611.896 1235.32 608.568C1229.39 605.136 1224.71 600.508 1221.28 594.684C1217.85 588.86 1216.13 582.256 1216.13 574.872C1216.13 567.592 1217.8 561.04 1221.12 555.216C1224.56 549.392 1229.13 544.816 1234.85 541.488C1240.68 538.056 1247.18 536.34 1254.35 536.34C1261.22 536.34 1267.25 537.9 1272.45 541.02C1277.75 544.14 1281.86 548.456 1284.77 553.968C1287.79 559.48 1289.3 565.72 1289.3 572.688C1289.3 573.728 1289.24 574.872 1289.14 576.12C1289.04 577.264 1288.83 578.616 1288.52 580.176H1225.96V568.476H1281.03L1275.88 573C1275.88 568.008 1275 563.796 1273.23 560.364C1271.46 556.828 1268.96 554.124 1265.74 552.252C1262.52 550.276 1258.62 549.288 1254.04 549.288C1249.26 549.288 1245.04 550.328 1241.4 552.408C1237.76 554.488 1234.96 557.4 1232.98 561.144C1231 564.888 1230.02 569.308 1230.02 574.404C1230.02 579.604 1231.06 584.18 1233.14 588.132C1235.22 591.98 1238.18 594.996 1242.03 597.18C1245.88 599.26 1250.3 600.3 1255.29 600.3C1259.45 600.3 1263.24 599.572 1266.68 598.116C1270.21 596.66 1273.23 594.476 1275.72 591.564L1284.77 600.768C1281.24 604.928 1276.87 608.1 1271.67 610.284C1266.57 612.468 1261.11 613.56 1255.29 613.56ZM1351.56 613.56C1347.4 613.56 1343.45 613.04 1339.7 612C1336.06 610.856 1332.68 609.296 1329.56 607.32C1326.44 605.24 1323.74 602.796 1321.45 599.988L1330.5 590.94C1333.2 594.268 1336.32 596.764 1339.86 598.428C1343.4 599.988 1347.35 600.768 1351.72 600.768C1356.08 600.768 1359.46 600.04 1361.86 598.584C1364.25 597.024 1365.44 594.892 1365.44 592.188C1365.44 589.484 1364.46 587.404 1362.48 585.948C1360.61 584.388 1358.16 583.14 1355.15 582.204C1352.13 581.164 1348.91 580.176 1345.48 579.24C1342.15 578.2 1338.98 576.9 1335.96 575.34C1332.94 573.78 1330.45 571.648 1328.47 568.944C1326.6 566.24 1325.66 562.652 1325.66 558.18C1325.66 553.708 1326.76 549.86 1328.94 546.636C1331.12 543.308 1334.14 540.76 1337.99 538.992C1341.94 537.224 1346.67 536.34 1352.18 536.34C1358.01 536.34 1363.16 537.38 1367.63 539.46C1372.2 541.436 1375.95 544.452 1378.86 548.508L1369.81 557.556C1367.73 554.852 1365.13 552.772 1362.01 551.316C1359 549.86 1355.56 549.132 1351.72 549.132C1347.66 549.132 1344.54 549.86 1342.36 551.316C1340.28 552.668 1339.24 554.592 1339.24 557.088C1339.24 559.584 1340.17 561.508 1342.04 562.86C1343.92 564.212 1346.36 565.356 1349.38 566.292C1352.5 567.228 1355.72 568.216 1359.05 569.256C1362.38 570.192 1365.55 571.492 1368.56 573.156C1371.58 574.82 1374.02 577.056 1375.9 579.864C1377.87 582.672 1378.86 586.364 1378.86 590.94C1378.86 597.908 1376.36 603.42 1371.37 607.476C1366.48 611.532 1359.88 613.56 1351.56 613.56Z" fill="#212121"/>
<g filter="url(#filter0_d_614_1964)">
<path d="M20.0136 1C12.4095 1 7.58768 9.15089 11.2493 15.8153L236.412 425.631C239.926 432.026 246.644 436 253.941 436H300.254C307.564 436 314.291 432.012 317.8 425.6L542.012 15.7998C545.658 9.13577 540.835 1 533.239 1H490.883C487.31 1 484.009 2.90599 482.223 6L285.346 347C281.497 353.667 271.875 353.667 268.026 347L138.411 122.5L114.45 81C110.601 74.3333 115.413 66 123.111 66H222.109L299.474 200L328.63 149.5C330.417 146.406 330.417 142.594 328.63 139.5L251.554 5.99999C249.768 2.90598 246.467 1 242.894 1H20.0136Z" fill="url(#paint0_linear_614_1964)"/>
<path d="M222.109 66H123.111C115.413 66 110.601 74.3333 114.45 81L138.411 122.5H200.459C204.031 122.5 207.333 124.406 209.119 127.5L266.565 227C270.414 233.667 280.037 233.667 283.886 227L299.474 200L222.109 66Z" fill="url(#paint1_linear_614_1964)"/>
</g>
<defs>
<filter id="filter0_d_614_1964" x="0" y="0" width="569.25" height="471" filterUnits="userSpaceOnUse" color-interpolation-filters="sRGB">
<feFlood flood-opacity="0" result="BackgroundImageFix"/>
<feColorMatrix in="SourceAlpha" type="matrix" values="0 0 0 0 0 0 0 0 0 0 0 0 0 0 0 0 0 0 127 0" result="hardAlpha"/>
<feOffset dx="8" dy="17"/>
<feGaussianBlur stdDeviation="9"/>
<feComposite in2="hardAlpha" operator="out"/>
<feColorMatrix type="matrix" values="0 0 0 0 0.173077 0 0 0 0 0.173077 0 0 0 0 0.173077 0 0 0 0.22 0"/>
<feBlend mode="normal" in2="BackgroundImageFix" result="effect1_dropShadow_614_1964"/>
<feBlend mode="normal" in="SourceGraphic" in2="effect1_dropShadow_614_1964" result="shape"/>
</filter>
<linearGradient id="paint0_linear_614_1964" x1="276.609" y1="1" x2="276.609" y2="436" gradientUnits="userSpaceOnUse">
<stop stop-color="#F3BF56"/>
<stop offset="0.55" stop-color="#EEE469"/>
<stop offset="1" stop-color="#F0AA3E"/>
</linearGradient>
<linearGradient id="paint1_linear_614_1964" x1="276.609" y1="1" x2="276.609" y2="436" gradientUnits="userSpaceOnUse">
<stop stop-color="#F0AF42"/>
<stop offset="1" stop-color="#F2C057"/>
</linearGradient>
</defs>
</svg>
